# xmcd CD database file
#
# Track frame offsets:
#	150
#	23162
#	44692
#	66760
#	85587
#	111947
#	135502
#	155500
#	181487
#	204112
#	233000
#
# Disc length: 3381 seconds
#
# Revision: 1
# Processed by: cddbd v1.5.2PL0 Copyright (c) Steve Scherf et al.
# Submitted via: CDex 1.70beta2
#
DISCID=890d330b
DTITLE=GAKU-MC - a day in the life
DYEAR=2002
DGENRE=ヒップ ホップ (一般)
TTITLE0=Guys on the Moon
TTITLE1=slow down
TTITLE2=昨日のＮｏ，明日のYes
TTITLE3=喝
TTITLE4=東京スーパースターズ
TTITLE5=flash back
TTITLE6=こんな風にlike this
TTITLE7=I wish
TTITLE8=明日のために（その１）
TTITLE9=Happy Vibes
TTITLE10=a day in the life
EXTD=YEAR: 2002
EXTT0=
EXTT1=
EXTT2=
EXTT3=
EXTT4=
EXTT5=
EXTT6=
EXTT7=
EXTT8=
EXTT9=
EXTT10=
PLAYORDER=
